<?xml version="1.0" encoding="utf-8"?>
<!-- Generator: Adobe Illustrator 26.3.1, SVG Export Plug-In . SVG Version: 6.00 Build 0)  -->
<svg version="1.1" id="Layer_1" xmlns="http://www.w3.org/2000/svg" xmlns:xlink="http://www.w3.org/1999/xlink" x="0px" y="0px"
	 viewBox="0 0 256 256" style="enable-background:new 0 0 256 256;" xml:space="preserve">
<style type="text/css">
	.st0{fill:#FFFFFF;}
</style>
<g id="_x23_ffffffff">
	<path class="st0" d="M118.9,3.8c1.2-5.1,9.8-5.2,11.4-0.3c3.7,10.1,7.9,20,11.6,30.1c1.4,5.5-6.1,9.4-10,5.6
		c-3-3.5-3.3-8.4-5.5-12.4l-1.4-0.3l-1.1,0.8c-4.8,15.7-10,31.3-15,46.9c-0.8,4.1-5.7,4.7-8.9,3.2c-14-6.1-27.9-12.3-41.9-18.4
		c-1.2-0.6-4.7-2.7-4.3,0.3c7.4,14.4,14.9,28.9,22.3,43.3c1.5,2.6,1.4,6.1-0.7,8.3c-1.6,1.1-3.5,1.7-5.4,2.4
		c-15.3,5.8-30.5,12-45.9,17.6c-0.2,1.9,0.3,3.7,0.8,5.4c-0.5,3.1-3.1,5.9-6.4,5.5c-4.3-0.9-8.3-2.7-12.6-3.9
		c-2-0.6-4.6-1.3-5.3-3.5c-0.2-2.7-0.9-6.6,2.2-7.9c17.9-7.1,35.9-14,53.8-21c2.1-0.9,4.6-1.3,5.9-3.3c-3.1-4.5-5.2-9.6-7.7-14.5
		c-7-13.6-13.9-27.2-20.9-40.7c-1.6-2.8-0.6-6.8,2.3-8.3c2.2-1.1,4.8-0.6,6.9,0.4c18.4,8.1,36.9,16.2,55.3,24.3c2,0.3,2-2.2,2.6-3.4
		C106.7,41.3,112.9,22.6,118.9,3.8z"/>
	<path class="st0" d="M143.1,46.6c7-7.3,16.4-12.3,26.4-14c12.6-2.2,26,1,36.1,8.8c11.1,8.1,17.5,21.2,19.1,34.6
		c-8.8,0-17.5,0.1-26.3-0.1c-2.1-10.2-12.1-18.8-22.7-17.8c-9.5,0.9-17.5,8.7-19.4,17.9c-8.8,0.1-17.6-0.2-26.4,0.1
		C131.4,65.3,135.4,54.5,143.1,46.6z"/>
	<path class="st0" d="M174.7,65.9c6.1-1.2,13.1,2,15.6,7.9c3.8,7.5-0.1,18.1-8.4,20.3c-7.2,2.6-16-1.6-18.1-9
		C160.7,77.2,166,67,174.7,65.9z"/>
	<path class="st0" d="M129.9,84.3c8.8,0.1,17.6,0,26.3,0c1.4,7.5,7.1,14,14.2,16.8c5.2,2,11.1,1.6,16-1c6.2-3.1,10.6-9.2,12.2-15.9
		c8.7,0,17.4,0,26.1,0c-1.5,13.1-7.5,26-18.1,34.1c-10.3,8.2-24.2,11.8-37.2,9.5c-12.4-1.9-23.9-9.2-31-19.6l-0.9,0.6l0.8-0.6
		C133.6,101.2,131.2,92.8,129.9,84.3z"/>
	<path class="st0" d="M226,112.2c2.2-1,4.8-0.6,7,0.2c6.8,2.3,13.7,4.3,20.4,6.7c1.1,0.3,1.8,1.3,2.5,2.1c0,2.5,0,5.1-0.4,7.6
		c-1.9,0.9-3.7,1.8-5.7,2.5c-18.5,7-36.9,14.3-55.3,21.4c0,0.5,0.1,1.5,0.1,2c9.2,17.8,18.3,35.6,27.4,53.5c1.5,2.5,1.8,6.1-0.4,8.3
		c-1.9,1.6-4.8,2.5-7.1,1.1c-18.6-8.2-37.2-16.3-55.8-24.6c-0.5-0.1-1.5-0.2-2.1-0.2c-6.6,20.2-12.9,40.4-19.7,60.5
		c-1,3.5-5.4,2.5-8.2,2.5c-2.5-0.5-2.8-3.3-3.7-5.2c-4.1-11.2-8.9-22.2-12.7-33.5c0.2-5.1,7-8,10.5-4.2c3,4.8,4.3,10.5,6.5,15.7
		c0.3,1.4,2,0.7,3,0.9c4.5-16,10.1-31.8,15.1-47.7c0.5-2.6,3.2-3.2,5.3-4.1c1.6,0.5,3.2,1,4.7,1.7c14.4,6.3,28.7,12.6,43.1,19
		c0.6-0.1,1.9-0.2,2.5-0.2c-7.4-15.2-15.4-30.2-23-45.4c-1.8-3.2,0-7.7,3.6-8.6c15.4-6,30.8-12.1,46.3-17.9c0.1-0.5,0.1-1.4,0.2-1.8
		c-2.2-1.1-5.3-1.3-6.5-3.8C222.3,117.8,223,113.6,226,112.2z"/>
	<path class="st0" d="M51.5,130.2c9.9-6.3,22.5-8.4,33.9-5.9c13.6,2.5,25.6,11.7,32,23.9c3.3,5.9,4.8,12.7,5.9,19.3
		c-8.8,0-17.6,0-26.4,0c-1.1-6.6-5.6-12.7-11.7-15.6c0,0-0.9-0.5-1-0.5l-1-0.4c-6.4-2.7-14.2-1.5-19.6,2.7c-1.2,0.7-1.7,1.4-1.7,1.4
		s-0.7,0.6-1.4,1.1c-2.5,3.4-5.2,6.9-5.7,11.2c-8.8,0-17.6,0-26.4,0c1-7.3,3.1-14.3,6.5-20.8c0.2-0.3,0.2-0.4,0.2-0.4s0.5,0,0.2-0.3
		C39.7,139.9,44.7,133.9,51.5,130.2z"/>
	<path class="st0" d="M71.6,157.7c6.1-1.6,13.6,0.3,16.6,6.1c4.3,6.8,2,17-5.3,20.7c-6.1,3.5-14.8,1.6-18.7-4.3
		C58.7,172.7,62.2,160.2,71.6,157.7z"/>
	<path class="st0" d="M28.4,175.9c8.8,0.1,17.6,0.1,26.5,0c1.4,7.9,7.6,14.6,15.1,17.1c11.7,4.2,25-5.2,27-17.1
		c8.8,0,17.5,0.1,26.3,0c-1.5,11.8-6.4,23.5-15.3,31.7c-8.8,8.1-20.8,12.8-32.9,12.4c-15.2,0.1-30.1-8-38.4-20.7
		C31.9,192.4,29.8,184,28.4,175.9z"/>
</g>
</svg>
